<?xml version="1.0" encoding="UTF-8"?>
<svg version="1.1" xmlns="http://www.w3.org/2000/svg" width="32" height="32">
<path d="M0 0 C10.56 0 21.12 0 32 0 C32 10.56 32 21.12 32 32 C21.44 32 10.88 32 0 32 C0 21.44 0 10.88 0 0 Z " fill="#EFF4FC" transform="translate(0,0)"/>
<path d="M0 0 C1.77313851 0.08209792 3.54920775 0.10746294 5.32421875 0.09765625 C6.86625977 0.09282227 6.86625977 0.09282227 8.43945312 0.08789062 C9.51130859 0.07951172 10.58316406 0.07113281 11.6875 0.0625 C12.77095703 0.05798828 13.85441406 0.05347656 14.97070312 0.04882812 C17.64715894 0.03703757 20.32358639 0.01910208 23 0 C23 3.96 23 7.92 23 12 C12.44 12 1.88 12 -9 12 C-9 8.04 -9 4.08 -9 0 C-3.375 -1.125 -3.375 -1.125 0 0 Z " fill="#E9F0FB" transform="translate(9,20)"/>
<path d="M0 0 C13.54239191 -0.30432341 13.54239191 -0.30432341 19 2 C19.33 2.99 19.66 3.98 20 5 C18.02 5.99 16.04 6.98 14 8 C13.67 7.34 13.34 6.68 13 6 C12.01 6 11.02 6 10 6 C10.33 7.65 10.66 9.3 11 11 C10.01 11.33 9.02 11.66 8 12 C8 12.66 8 13.32 8 14 C8.94875 13.175 9.8975 12.35 10.875 11.5 C13.75 9 13.75 9 16 9 C16.33 10.65 16.66 12.3 17 14 C16.01 14.495 16.01 14.495 15 15 C15 16.32 15 17.64 15 19 C8.25 21.125 8.25 21.125 6 20 C4.02 20 2.04 20 0 20 C0 13.4 0 6.8 0 0 Z " fill="#FCFDFE" transform="translate(0,0)"/>
<path d="M0 0 C8.25 0 16.5 0 25 0 C25 2.97 25 5.94 25 9 C23.68 9 22.36 9 21 9 C21 8.01 21 7.02 21 6 C20.01 6 19.02 6 18 6 C18 6.99 18 7.98 18 9 C17.34 9 16.68 9 16 9 C16 8.01 16 7.02 16 6 C15.01 6 14.02 6 13 6 C13.33 6.99 13.66 7.98 14 9 C12.35 8.67 10.7 8.34 9 8 C9 7.01 9 6.02 9 5 C7.88625 5.020625 6.7725 5.04125 5.625 5.0625 C2 5 2 5 0 4 C0 2.68 0 1.36 0 0 Z " fill="#E6EFFB" transform="translate(7,20)"/>
<path d="M0 0 C1.34061543 0.30271961 2.67405895 0.63837971 4 1 C6.15634036 1 7.92446352 0.5534764 10 0 C9.690625 0.680625 9.38125 1.36125 9.0625 2.0625 C7.86629351 5.36965912 7.40994603 8.51545878 7 12 C6.01 12.33 5.02 12.66 4 13 C3.67 11.35 3.34 9.7 3 8 C3.99 8.33 4.98 8.66 6 9 C6 7.35 6 5.7 6 4 C5.05125 4.825 4.1025 5.65 3.125 6.5 C0.25 9 0.25 9 -2 9 C-2 7 -2 7 0 5 C-0.40929986 2.94603274 -0.40929986 2.94603274 -1 1 C-0.67 0.67 -0.34 0.34 0 0 Z " fill="#72A3E9" transform="translate(10,5)"/>
<path d="M0 0 C4.95 0 9.9 0 15 0 C15.66 1.32 16.32 2.64 17 4 C15.35 3.01 13.7 2.02 12 1 C11.67 2.32 11.34 3.64 11 5 C10.01 4.67 9.02 4.34 8 4 C8 3.01 8 2.02 8 1 C7.34 1 6.68 1 6 1 C5.67 1.99 5.34 2.98 5 4 C5 3.01 5 2.02 5 1 C4.34 1 3.68 1 3 1 C2.67 1.99 2.34 2.98 2 4 C1.34 4 0.68 4 0 4 C0 2.68 0 1.36 0 0 Z " fill="#71A3E9" transform="translate(10,20)"/>
<path d="M0 0 C0.99 0 1.98 0 3 0 C3.66 0.99 4.32 1.98 5 3 C5.33 2.34 5.66 1.68 6 1 C7.32 1 8.64 1 10 1 C10 2.32 10 3.64 10 5 C2.25 5.125 2.25 5.125 0 4 C0 2.68 0 1.36 0 0 Z " fill="#B3CEF3" transform="translate(7,20)"/>
<path d="M0 0 C0 0.99 0 1.98 0 3 C-4.29 3 -8.58 3 -13 3 C-13.33 2.34 -13.66 1.68 -14 1 C-13.07767578 1.01740234 -13.07767578 1.01740234 -12.13671875 1.03515625 C-10.92435547 1.04869141 -10.92435547 1.04869141 -9.6875 1.0625 C-8.88699219 1.07410156 -8.08648437 1.08570312 -7.26171875 1.09765625 C-4.67983261 0.98617585 -2.57562005 0 0 0 Z " fill="#FEC0C3" transform="translate(32,29)"/>
<path d="M0 0 C1.98 0 3.96 0 6 0 C6 1.65 6 3.3 6 5 C4.02 5 2.04 5 0 5 C0 3.35 0 1.7 0 0 Z " fill="#A4C4F1" transform="translate(26,20)"/>
<path d="M0 0 C0.99 0 1.98 0 3 0 C3 0.99 3 1.98 3 3 C3.66 3 4.32 3 5 3 C5 2.01 5 1.02 5 0 C5.99 0 6.98 0 8 0 C8 0.99 8 1.98 8 3 C8.66 3.33 9.32 3.66 10 4 C7.33438378 4.98726527 6.09873015 5.0275526 3.3125 4.25 C1 3 1 3 0 0 Z " fill="#C7D4F0" transform="translate(20,26)"/>
<path d="M0 0 C0.99 0 1.98 0 3 0 C3.36666667 5.5 3.36666667 5.5 1.625 7.875 C0 9 0 9 -2 9 C-2 7 -2 7 0 5 C-0.40929986 2.94603274 -0.40929986 2.94603274 -1 1 C-0.67 0.67 -0.34 0.34 0 0 Z " fill="#87B1ED" transform="translate(10,5)"/>
<path d="M0 0 C2.31 0 4.62 0 7 0 C7 1.32 7 2.64 7 4 C5.68 4 4.36 4 3 4 C3 3.01 3 2.02 3 1 C2.01 0.67 1.02 0.34 0 0 Z " fill="#DDE9FA" transform="translate(25,25)"/>
<path d="M0 0 C1.65 0 3.3 0 5 0 C5 1.32 5 2.64 5 4 C3.35 4 1.7 4 0 4 C0 2.68 0 1.36 0 0 Z " fill="#75A5EA" transform="translate(1,20)"/>
<path d="M0 0 C0.66 0 1.32 0 2 0 C2.33 1.65 2.66 3.3 3 5 C2.01 5.495 2.01 5.495 1 6 C1 5.34 1 4.68 1 4 C0.01 4 -0.98 4 -2 4 C-1.34 2.68 -0.68 1.36 0 0 Z " fill="#ECF3FC" transform="translate(14,9)"/>
<path d="M0 0 C1.98 0 3.96 0 6 0 C5.67 1.32 5.34 2.64 5 4 C5 3.01 5 2.02 5 1 C4.34 1 3.68 1 3 1 C2.67 1.99 2.34 2.98 2 4 C1.34 4 0.68 4 0 4 C0 2.68 0 1.36 0 0 Z " fill="#4D8BE4" transform="translate(10,20)"/>
</svg>
